<svg width="140" height="140" viewBox="0 0 140 140" fill="none" xmlns="http://www.w3.org/2000/svg">
<path fill-rule="evenodd" clip-rule="evenodd" d="M93.4668 23.8308C93.4668 42.9303 109.177 58.4135 128.557 58.4135C131.104 58.4135 133.588 58.1461 135.981 57.6382C129.652 66.0317 119.515 71.47 108.089 71.47C88.9095 71.47 73.3617 56.1471 73.3617 37.2454C73.3617 21.1564 84.6265 7.66036 99.8072 4C95.8115 9.61354 93.4668 16.4523 93.4668 23.8308Z" fill="black" fill-opacity="0.6"/>
<path fill-rule="evenodd" clip-rule="evenodd" d="M64.1236 100.315H25.5284C13.6386 100.315 4 90.5608 4 78.5287C4 66.4966 13.6386 56.7427 25.5284 56.7427C29.1163 56.7427 32.4993 57.6309 35.4742 59.2019C39.6166 47.0431 51.0228 38.3084 64.445 38.3084C81.3651 38.3084 95.0816 52.189 95.0816 69.3115C95.0816 69.6625 95.0758 70.012 95.0644 70.3601C100.004 73.0454 103.362 78.3229 103.362 84.3942C103.362 93.1868 96.3181 100.315 87.6294 100.315H64.445C64.3967 100.315 64.1236 100.315 64.1236 100.315H64.445H64.1236Z" fill="white"/>
<path fill-rule="evenodd" clip-rule="evenodd" d="M45.005 133.5L52.3472 106.324C52.5908 105.404 53.471 104.829 54.3929 104.96L54.5381 104.987L54.4629 104.964L54.6239 105.007L54.5358 104.987L54.6847 105.039C55.542 105.391 56.0262 106.341 55.7838 107.256L48.4415 134.432C48.1979 135.352 47.3177 135.927 46.3958 135.796L46.251 135.766L46.3259 135.793L46.1648 135.749L46.2464 135.766L46.104 135.717C45.2467 135.365 44.7625 134.416 45.005 133.5ZM63.6838 104.794L63.8896 104.834L64.0784 104.901C64.9053 105.252 65.3683 106.182 65.133 107.07L60.087 126.128C59.8492 127.026 58.9829 127.586 58.0996 127.473L57.9051 127.433L57.705 127.365C56.8781 127.014 56.4152 126.084 56.6504 125.196L61.6964 106.139C61.9342 105.241 62.8005 104.68 63.6838 104.794ZM43.5557 104.677L43.7609 104.717L43.9504 104.784C44.7772 105.136 45.2402 106.065 45.005 106.954L39.9589 126.011C39.7212 126.909 38.8549 127.47 37.9716 127.356L37.7787 127.316L37.577 127.249C36.7501 126.897 36.2871 125.968 36.5224 125.079L41.5684 106.022C41.8062 105.124 42.6724 104.563 43.5557 104.677ZM73.8449 104.592L74.0764 104.638C75.0254 104.895 75.5884 105.883 75.3319 106.852L72.4207 117.846C72.1864 118.731 71.3231 119.281 70.4712 119.174L70.2397 119.128C69.2907 118.871 68.7277 117.883 68.9842 116.915L71.8953 105.92C72.1296 105.035 72.993 104.485 73.8449 104.592Z" fill="#ADE8FF"/>
</svg>
